<svg width="149" height="25" viewBox="0 0 149 25" fill="none" xmlns="http://www.w3.org/2000/svg">
    <path d="M143.122 21.0374C141.472 21.0374 140.123 20.6812 139.073 19.9689C138.023 19.2378 137.283 18.3099 136.852 17.1851L139.607 15.976C139.945 16.7258 140.413 17.2976 141.013 17.6912C141.632 18.0849 142.335 18.2817 143.122 18.2817C143.891 18.2817 144.537 18.1505 145.062 17.8881C145.587 17.6069 145.85 17.1945 145.85 16.6508C145.85 16.1259 145.625 15.7135 145.175 15.4136C144.725 15.1137 144.031 14.8512 143.094 14.6263L141.379 14.2045C140.235 13.9233 139.289 13.4265 138.539 12.7142C137.789 12.0018 137.414 11.102 137.414 10.0147C137.414 9.17116 137.658 8.43069 138.145 7.79333C138.651 7.15596 139.326 6.66857 140.17 6.33114C141.013 5.97496 141.932 5.79688 142.925 5.79688C144.256 5.79688 145.428 6.06869 146.44 6.61233C147.452 7.13722 148.184 7.90581 148.633 8.91809L145.934 10.0991C145.39 8.99308 144.397 8.44007 142.953 8.44007C142.26 8.44007 141.679 8.58066 141.21 8.86185C140.741 9.14305 140.507 9.50859 140.507 9.9585C140.507 10.3897 140.685 10.7458 141.041 11.027C141.397 11.2895 141.922 11.5144 142.616 11.7019L144.725 12.2361C146.131 12.5923 147.19 13.136 147.902 13.8671C148.633 14.5794 148.999 15.4605 148.999 16.5102C148.999 17.4101 148.737 18.2068 148.212 18.9004C147.706 19.5752 147.003 20.1001 146.103 20.475C145.203 20.85 144.209 21.0374 143.122 21.0374Z" fill="white"/>
    <path d="M112.822 6.24678H115.775V8.13076H115.915C116.347 7.43715 116.956 6.87477 117.743 6.44361C118.53 6.01245 119.374 5.79688 120.274 5.79688C121.305 5.79688 122.205 6.04057 122.973 6.52797C123.742 6.99662 124.295 7.62461 124.632 8.41195C125.12 7.62461 125.766 6.99662 126.572 6.52797C127.397 6.04057 128.363 5.79688 129.469 5.79688C131.118 5.79688 132.365 6.30302 133.209 7.3153C134.071 8.30885 134.502 9.66793 134.502 11.3926V20.5875H131.409V11.9268C131.409 9.75229 130.481 8.66502 128.625 8.66502C127.632 8.66502 126.816 9.06806 126.179 9.87414C125.541 10.6802 125.223 11.6738 125.223 12.8548V20.5875H122.13V11.9268C122.13 9.75229 121.174 8.66502 119.262 8.66502C118.287 8.66502 117.481 9.06806 116.843 9.87414C116.225 10.6802 115.915 11.6738 115.915 12.8548V20.5875H112.822V6.24678Z" fill="white"/>
    <path d="M106.094 0.449219H109.187V20.5825H106.094V0.449219Z" fill="white"/>
    <path d="M100.698 4.16162C100.117 4.16162 99.6201 3.96479 99.2077 3.57112C98.814 3.15871 98.6172 2.66194 98.6172 2.08081C98.6172 1.49969 98.814 1.01229 99.2077 0.61862C99.6201 0.206207 100.117 0 100.698 0C101.279 0 101.767 0.206207 102.16 0.61862C102.573 1.01229 102.779 1.49969 102.779 2.08081C102.779 2.66194 102.573 3.15871 102.16 3.57112C101.767 3.96479 101.279 4.16162 100.698 4.16162ZM99.1515 6.24243H102.245V20.5832H99.1515V6.24243Z" fill="white"/>
    <path d="M84.1367 0.449219H96.3685V3.45796H87.2861V9.25049H95.4687V12.2311H87.2861V20.5825H84.1367V0.449219Z" fill="white"/>
    <path d="M69.0781 6.24219H72.1712V12.569H72.3399L77.6826 6.24219H81.4505V6.4109L75.658 13.047L81.7317 20.4142V20.5829H77.9919L72.3399 13.5531H72.1712V20.5829H69.0781V6.24219Z" fill="#2563EB"/>
    <path d="M52.5488 6.24219H55.6419V13.2438L55.5013 15.9433H55.6419L62.3905 6.24219H65.4836V20.5829H62.3905V13.5813L62.5311 10.8818H62.3905L55.6419 20.5829H52.5488V6.24219Z" fill="#2563EB"/>
    <path d="M32.8379 17.8272H34.4126C34.825 17.2836 35.1624 16.4025 35.4248 15.1841C35.706 13.9656 35.8466 12.7096 35.8466 11.4161V6.24219H47.6285V17.8272H49.8218V24.857H46.9537V20.5829H35.706V24.857H32.8379V17.8272ZM44.6198 17.8272V9.02598H38.8554V11.6692C38.8554 12.7752 38.7429 13.8718 38.5179 14.9591C38.3117 16.0276 38.0118 16.9837 37.6181 17.8272H44.6198Z" fill="#2563EB"/>
    <path d="M23.8984 21.0374C22.455 21.0374 21.1615 20.7094 20.018 20.0532C18.8745 19.3784 17.984 18.4598 17.3467 17.2976C16.7093 16.1353 16.3906 14.8418 16.3906 13.4171C16.3906 11.9924 16.7093 10.699 17.3467 9.53671C17.984 8.37446 18.8745 7.46527 20.018 6.80916C21.1615 6.1343 22.455 5.79688 23.8984 5.79688C25.3419 5.79688 26.6353 6.1343 27.7788 6.80916C28.9224 7.48402 29.8128 8.40258 30.4502 9.56483C31.0875 10.7271 31.4062 12.0112 31.4062 13.4171C31.4062 14.8418 31.0875 16.1353 30.4502 17.2976C29.8128 18.4598 28.9224 19.3784 27.7788 20.0532C26.6353 20.7094 25.3419 21.0374 23.8984 21.0374ZM23.8984 18.1974C24.6858 18.1974 25.4168 18.0099 26.0917 17.635C26.7666 17.2413 27.3008 16.6883 27.6945 15.976C28.1069 15.2449 28.3131 14.3919 28.3131 13.4171C28.3131 12.4423 28.1069 11.5988 27.6945 10.8864C27.3008 10.1741 26.7666 9.63044 26.0917 9.25552C25.4168 8.86185 24.6858 8.66502 23.8984 8.66502C23.1111 8.66502 22.38 8.86185 21.7051 9.25552C21.0303 9.63044 20.4866 10.1741 20.0742 10.8864C19.6806 11.5988 19.4837 12.4423 19.4837 13.4171C19.4837 14.3919 19.6806 15.2449 20.0742 15.976C20.4866 16.6883 21.0303 17.2413 21.7051 17.635C22.38 18.0099 23.1111 18.1974 23.8984 18.1974Z" fill="#2563EB"/>
    <path d="M0 0.449219H3.14934V10.2065H3.31805L11.2757 0.449219H15.2405V0.617933L6.83293 10.6846L15.7186 20.4138V20.5825H11.5569L3.31805 11.3594H3.14934V20.5825H0V0.449219Z" fill="#2563EB"/>
</svg>
